<?xml version="1.0" encoding="utf-8"?>
<!-- Generator: Adobe Illustrator 22.1.0, SVG Export Plug-In . SVG Version: 6.00 Build 0)  -->
<svg version="1.1" id="Calque_1" xmlns="http://www.w3.org/2000/svg" xmlns:xlink="http://www.w3.org/1999/xlink" x="0px" y="0px"
	 viewBox="0 0 300 40" style="enable-background:new 0 0 300 40;" xml:space="preserve">
<style type="text/css">
	.st0{fill:#FFFFFF;}
</style>
<path class="st0" d="M7.9,16.6c0,0.5,0,1.1,0,1.6s0,1.2,0,2.1c0,1.8,0.1,3.6,0.3,5.4c0.2,1.8,0.6,3.5,1.4,5.1
	c0.7,1.5,1.8,2.8,3.1,3.8c1.6,1,3.5,1.5,5.4,1.5c1.9,0.1,3.9-0.3,5.7-1c1.3-0.6,2.5-1.4,3.5-2.5c0.8-0.9,1.4-1.9,1.9-2.9
	c0.4-1,0.7-1.8,0.9-2.4l1.2,0.2c-0.3,0.8-0.6,1.7-0.9,2.5c-0.5,1.2-1.2,2.3-2.1,3.2c-1.1,1.2-2.4,2.1-3.9,2.8
	c-2,0.9-4.2,1.3-6.4,1.2c-2.5,0-4.9-0.4-7.2-1.2c-2.1-0.8-4.1-2-5.8-3.6c-1.6-1.6-2.9-3.5-3.8-5.6C0.4,24.3,0,21.9,0,19.4
	c0-2.3,0.5-4.6,1.4-6.7c1.8-4.3,5.1-7.8,9.4-9.8c3.6-1.7,7.8-2,11.6-0.8C24,2.7,25.6,3.6,27,4.7c1.5,1.3,2.7,2.9,3.6,4.7
	c1,2.3,1.5,4.7,1.4,7.2H7.9z M24.1,15.5c0.1-0.7,0.2-1.3,0.2-2v-2c0-1.5-0.1-3-0.5-4.4c-0.3-1-0.7-1.9-1.4-2.7
	c-0.6-0.7-1.4-1.2-2.2-1.5c-0.9-0.3-1.8-0.4-2.8-0.4c-1.5-0.1-3.1,0.3-4.4,1.1c-1.1,0.7-2.1,1.7-2.7,2.9C9.5,7.7,9,9.1,8.7,10.6
	c-0.3,1.6-0.6,3.3-0.7,4.9H24.1z"/>
<path class="st0" d="M42.6,2.4h19v1.1h-6.5l10.1,24.6L75.8,3.5h-6.4V2.4h11.9v1.1H77L62.2,38.6L48,3.5h-5.4V2.4z"/>
<path class="st0" d="M101.6,16.6c0,0.5,0,1.1,0,1.6s0,1.2,0,2.1c0,1.8,0.1,3.6,0.3,5.4c0.2,1.8,0.6,3.5,1.4,5.1
	c0.7,1.5,1.8,2.8,3.1,3.8c1.6,1,3.5,1.5,5.4,1.5c1.9,0.1,3.9-0.3,5.7-1c1.3-0.6,2.5-1.4,3.5-2.5c0.8-0.9,1.5-1.9,2-2.9
	c0.4-1,0.7-1.8,0.9-2.4l1.2,0.2c-0.3,0.8-0.6,1.7-0.9,2.5c-0.5,1.2-1.2,2.3-2.1,3.2c-1.1,1.2-2.4,2.1-3.9,2.8
	c-2,0.9-4.2,1.3-6.4,1.2c-2.5,0-4.9-0.4-7.2-1.2c-2.1-0.8-4.1-2-5.8-3.6c-1.6-1.6-2.9-3.5-3.8-5.6c-0.9-2.3-1.4-4.8-1.3-7.2
	c0-2.3,0.4-4.6,1.3-6.7c0.9-2.1,2.2-4.1,3.8-5.7c1.6-1.7,3.5-3,5.6-4c3.6-1.8,7.8-2.1,11.6-0.8c1.7,0.5,3.3,1.4,4.7,2.6
	c1.5,1.3,2.8,2.9,3.6,4.7c1,2.3,1.5,4.7,1.4,7.2H101.6z M117.7,15.5c0.1-0.7,0.2-1.3,0.2-2v-2c0-1.5-0.1-3-0.5-4.4
	c-0.2-1-0.7-1.9-1.4-2.7c-0.6-0.7-1.3-1.2-2.2-1.5c-0.9-0.3-1.8-0.4-2.8-0.4c-1.5-0.1-3.1,0.3-4.4,1.1c-1.1,0.7-2.1,1.7-2.7,2.9
	c-0.7,1.3-1.2,2.7-1.5,4.2c-0.3,1.6-0.6,3.3-0.7,4.9H117.7z"/>
<path class="st0" d="M140.6,34.9h6V3.5h-6V2.4h12.6v7.9h0.2c0.3-0.9,0.6-1.8,1-2.7c0.5-1.1,1.2-2,2-2.9c0.9-0.9,1.9-1.7,3-2.3
	c1.3-0.7,2.8-1,4.3-0.9c1.1,0,2.1,0.2,3.1,0.6c0.8,0.3,1.6,0.9,2.2,1.5c0.6,0.6,1,1.3,1.2,2.1c0.3,0.8,0.4,1.6,0.4,2.3
	c0,1.7-0.4,2.9-1.2,3.4c-0.8,0.6-1.8,0.9-2.8,0.9c-2.3,0-3.4-0.7-3.4-2.2c0-0.4,0-0.8,0.1-1.2c0.1-0.3,0.2-0.6,0.4-0.9
	c0.1-0.3,0.3-0.7,0.4-1c0.1-0.5,0.2-1,0.1-1.6c0-1.7-0.9-2.5-2.7-2.5c-1,0-1.9,0.4-2.7,0.9c-1,0.7-1.9,1.7-2.6,2.7
	c-0.9,1.4-1.5,2.8-2,4.4c-0.6,1.9-0.9,3.9-0.8,5.8v18h6.8V36h-19.6V34.9z"/>
<path class="st0" d="M191,16.6c0,0.5,0,1.1,0,1.6s0,1.2,0,2.1c0,1.8,0.1,3.6,0.3,5.4c0.2,1.8,0.6,3.5,1.4,5.1
	c0.7,1.5,1.8,2.8,3.1,3.8c1.6,1,3.5,1.5,5.4,1.5c1.9,0.1,3.9-0.3,5.7-1c1.3-0.6,2.5-1.4,3.5-2.5c0.8-0.9,1.4-1.9,1.9-2.9
	c0.4-1,0.7-1.8,0.9-2.4l1.2,0.2c-0.3,0.8-0.6,1.7-0.9,2.5c-0.5,1.2-1.2,2.3-2.1,3.2c-1.1,1.2-2.4,2.1-3.9,2.8
	c-2,0.9-4.2,1.3-6.4,1.2c-2.5,0-4.9-0.4-7.2-1.2c-2.1-0.8-4.1-2-5.8-3.6c-1.6-1.6-2.9-3.5-3.8-5.6c-0.9-2.3-1.4-4.8-1.3-7.2
	c0-2.3,0.5-4.6,1.4-6.7c0.9-2.1,2.2-4,3.8-5.7c1.6-1.7,3.5-3,5.6-4c3.6-1.7,7.8-2,11.6-0.8c1.7,0.5,3.3,1.4,4.7,2.6
	c1.5,1.3,2.8,2.9,3.6,4.7c1,2.3,1.5,4.7,1.4,7.2L191,16.6z M207.1,15.5c0.1-0.7,0.2-1.3,0.2-2v-2c0-1.5-0.1-3-0.5-4.4
	c-0.3-1-0.7-1.9-1.4-2.7c-0.6-0.7-1.3-1.2-2.2-1.5c-0.9-0.3-1.8-0.4-2.8-0.4c-1.5-0.1-3.1,0.3-4.4,1.1c-1.1,0.7-2.1,1.7-2.7,2.9
	c-0.7,1.3-1.2,2.7-1.5,4.2c-0.3,1.6-0.6,3.3-0.7,4.9H207.1z"/>
<path class="st0" d="M232.3,25h0.9c0.4,1.3,0.9,2.6,1.4,3.8c0.6,1.3,1.4,2.5,2.3,3.5c1,1.1,2.2,2,3.6,2.6c1.6,0.7,3.3,1.1,5.1,1
	c1.6,0,3.2-0.5,4.5-1.5c1.3-1,2-2.7,2-5c0-2-0.5-3.4-1.5-4.2c-1.1-0.8-2.3-1.5-3.6-1.9l-6.1-2.1c-0.8-0.3-1.6-0.6-2.5-1
	c-0.9-0.4-1.8-1-2.6-1.6c-0.8-0.7-1.5-1.6-2-2.6c-0.5-1.3-0.8-2.8-0.8-4.2c0-1.4,0.3-2.8,0.9-4.1c1.2-2.5,3.3-4.5,5.9-5.5
	c1.4-0.5,3-0.8,4.5-0.8c0.9,0,1.9,0.1,2.8,0.3c0.7,0.2,1.3,0.4,1.8,0.5s1,0.4,1.4,0.5c0.5,0.2,1,0.2,1.5,0.2c0.5,0,1-0.2,1.3-0.6
	h0.9v8.9h-0.9c-0.4-1.1-0.8-2.2-1.3-3.3c-0.4-1-1-2-1.7-2.9c-0.6-0.8-1.5-1.5-2.4-2c-1.1-0.5-2.2-0.7-3.4-0.7
	c-2.1-0.1-4.1,0.5-5.8,1.7c-1.4,1.1-2.1,2.8-2.1,4.5c-0.1,1.5,0.6,2.9,1.8,3.8c1.6,1.1,3.4,1.9,5.2,2.4l5.7,1.9
	c2.2,0.7,4.3,1.9,6,3.5c1.6,1.5,2.5,3.6,2.4,5.8c0,1.4-0.3,2.8-0.8,4.1c-0.5,1.3-1.4,2.6-2.4,3.6c-1.1,1.1-2.5,1.9-3.9,2.5
	c-1.7,0.7-3.5,1-5.3,0.9c-1.1,0-2.1-0.1-3.2-0.3c-1-0.2-1.9-0.5-2.7-0.7s-1.6-0.5-2.2-0.8c-0.6-0.2-1.2-0.3-1.9-0.3
	c-0.4,0-0.9,0.1-1.2,0.3c-0.2,0.2-0.5,0.5-0.6,0.8h-0.9L232.3,25z"/>
<path class="st0" d="M274.8,25h0.9c0.4,1.3,0.8,2.6,1.4,3.8c0.6,1.3,1.4,2.5,2.3,3.5c1,1.1,2.2,2,3.6,2.6c1.6,0.7,3.3,1.1,5.1,1
	c1.6,0,3.2-0.5,4.5-1.5c1.3-1,2-2.7,2-5c0-2-0.5-3.4-1.5-4.2c-1.1-0.8-2.3-1.5-3.6-1.9l-6.1-2.1c-0.8-0.3-1.6-0.6-2.5-1
	c-0.9-0.4-1.8-1-2.5-1.6c-0.8-0.7-1.5-1.6-2-2.6c-0.5-1.3-0.8-2.8-0.7-4.2c0-1.4,0.3-2.8,0.9-4.1c0.6-1.2,1.4-2.4,2.4-3.3
	c1-1,2.2-1.7,3.6-2.2c1.4-0.5,3-0.8,4.5-0.8c0.9,0,1.9,0.1,2.8,0.3c0.7,0.2,1.3,0.4,1.8,0.5s1,0.4,1.4,0.5c0.5,0.2,1,0.3,1.5,0.3
	c0.5,0,1-0.2,1.2-0.6h0.9v8.9h-0.9c-0.4-1.1-0.8-2.3-1.3-3.4c-0.4-1-1-2-1.7-2.9c-0.6-0.8-1.5-1.5-2.4-2c-1.1-0.5-2.2-0.7-3.4-0.7
	c-2.1-0.1-4.1,0.5-5.8,1.7c-1.4,1.1-2.1,2.8-2.1,4.5c-0.1,1.5,0.6,2.9,1.8,3.8c1.6,1.1,3.4,1.9,5.2,2.4l5.7,1.9
	c2.2,0.7,4.3,1.9,6,3.5c1.6,1.5,2.5,3.6,2.4,5.8c0,1.4-0.3,2.8-0.8,4.1c-0.5,1.3-1.4,2.6-2.4,3.6c-1.1,1.1-2.5,1.9-3.9,2.5
	c-1.7,0.7-3.5,1-5.3,0.9c-1.1,0-2.1-0.1-3.2-0.3c-1-0.2-1.9-0.5-2.7-0.7s-1.5-0.5-2.2-0.8c-0.6-0.2-1.2-0.3-1.9-0.3
	c-0.4,0-0.9,0.1-1.3,0.3c-0.2,0.2-0.5,0.5-0.6,0.8h-0.9L274.8,25z"/>
</svg>
