<svg id="Calque_1" data-name="Calque 1" xmlns="http://www.w3.org/2000/svg" viewBox="0 0 300 40"><defs><style>.cls-1{fill:#1d1d1b;}</style></defs><title>logo-everess</title><path class="cls-1" d="M7.92,16.59c0,.52,0,1.06,0,1.61s0,1.24,0,2.07a48.69,48.69,0,0,0,.31,5.41,16.5,16.5,0,0,0,1.37,5.1,9.51,9.51,0,0,0,3.14,3.76A9.28,9.28,0,0,0,18.18,36a13.71,13.71,0,0,0,5.68-1,10.41,10.41,0,0,0,3.53-2.47,10.88,10.88,0,0,0,1.92-2.94c.42-1,.73-1.8.94-2.43l1.18.24a24.45,24.45,0,0,1-.9,2.46,11.31,11.31,0,0,1-2.12,3.22,12.85,12.85,0,0,1-3.92,2.82,14.5,14.5,0,0,1-6.39,1.21,20.56,20.56,0,0,1-7.25-1.25,16.61,16.61,0,0,1-5.76-3.61,16.21,16.21,0,0,1-3.76-5.6A18.92,18.92,0,0,1,0,19.41a17.16,17.16,0,0,1,1.37-6.7,18.76,18.76,0,0,1,9.37-9.79,15.57,15.57,0,0,1,11.6-.75A13.77,13.77,0,0,1,27,4.72a14,14,0,0,1,3.6,4.66,16,16,0,0,1,1.45,7.21Zm16.14-1.1a15.17,15.17,0,0,0,.16-2v-2a15.78,15.78,0,0,0-.51-4.39A7.07,7.07,0,0,0,22.3,4.37a5,5,0,0,0-2.2-1.45,8.66,8.66,0,0,0-2.78-.44,8.32,8.32,0,0,0-4.39,1.06A7.84,7.84,0,0,0,10.19,6.4a14.83,14.83,0,0,0-1.53,4.16A33.11,33.11,0,0,0,8,15.49Z"/><path class="cls-1" d="M42.63,2.41h19V3.5H55.17L65.28,28.11,75.78,3.5H69.36V2.41H81.27V3.5H77L62.23,38.61,48,3.5H42.63Z"/><path class="cls-1" d="M101.57,16.59c0,.52,0,1.06,0,1.61s0,1.24,0,2.07a48.69,48.69,0,0,0,.31,5.41,16.5,16.5,0,0,0,1.37,5.1,9.51,9.51,0,0,0,3.14,3.76A9.28,9.28,0,0,0,111.83,36a13.76,13.76,0,0,0,5.69-1A10.46,10.46,0,0,0,121,32.54,10.88,10.88,0,0,0,123,29.6c.42-1,.73-1.8.94-2.43l1.18.24a24.45,24.45,0,0,1-.9,2.46,11.31,11.31,0,0,1-2.12,3.22,12.85,12.85,0,0,1-3.92,2.82,14.46,14.46,0,0,1-6.38,1.21,20.52,20.52,0,0,1-7.25-1.25,16.52,16.52,0,0,1-5.76-3.61A16.23,16.23,0,0,1,95,26.66a19.11,19.11,0,0,1-1.33-7.25A17.16,17.16,0,0,1,95,12.71,18.9,18.9,0,0,1,98.79,7a18.68,18.68,0,0,1,5.6-4A15.57,15.57,0,0,1,116,2.17a13.77,13.77,0,0,1,4.66,2.55,14,14,0,0,1,3.61,4.66,16.13,16.13,0,0,1,1.44,7.21Zm16.14-1.1a13.68,13.68,0,0,0,.16-2v-2a15.78,15.78,0,0,0-.51-4.39A7.07,7.07,0,0,0,116,4.37a4.89,4.89,0,0,0-2.2-1.45A8.66,8.66,0,0,0,111,2.48a8.34,8.34,0,0,0-4.39,1.06,7.84,7.84,0,0,0-2.74,2.86,14.83,14.83,0,0,0-1.53,4.16,31.86,31.86,0,0,0-.66,4.93Z"/><path class="cls-1" d="M140.6,34.93h6V3.5h-6V2.41h12.61v7.91h.16a16.08,16.08,0,0,1,1-2.66,11.31,11.31,0,0,1,2-2.86,11.09,11.09,0,0,1,3-2.32,9.08,9.08,0,0,1,4.28-.94,7.73,7.73,0,0,1,3.13.59A6.82,6.82,0,0,1,169,3.62a5.47,5.47,0,0,1,1.25,2.08,7.42,7.42,0,0,1,.39,2.35q0,2.58-1.17,3.45a4.57,4.57,0,0,1-2.75.86c-2.3,0-3.45-.73-3.45-2.2A3.48,3.48,0,0,1,163.4,9a9.11,9.11,0,0,1,.35-.86,8.46,8.46,0,0,0,.36-1,6.32,6.32,0,0,0,.15-1.57c0-1.67-.91-2.51-2.74-2.51a4.81,4.81,0,0,0-2.66.94,9.9,9.9,0,0,0-2.63,2.74,17.56,17.56,0,0,0-2,4.35,19,19,0,0,0-.82,5.84v18h6.82V36H140.6Z"/><path class="cls-1" d="M191,16.59c0,.52,0,1.06,0,1.61s0,1.24,0,2.07a48.69,48.69,0,0,0,.31,5.41,16.5,16.5,0,0,0,1.37,5.1,9.51,9.51,0,0,0,3.14,3.76A9.28,9.28,0,0,0,201.25,36a13.76,13.76,0,0,0,5.69-1,10.46,10.46,0,0,0,3.52-2.47,10.88,10.88,0,0,0,1.92-2.94c.42-1,.73-1.8.94-2.43l1.18.24a24.45,24.45,0,0,1-.9,2.46,11.31,11.31,0,0,1-2.12,3.22,12.85,12.85,0,0,1-3.92,2.82,14.46,14.46,0,0,1-6.38,1.21,20.52,20.52,0,0,1-7.25-1.25,16.52,16.52,0,0,1-5.76-3.61,16.23,16.23,0,0,1-3.77-5.6,19.11,19.11,0,0,1-1.33-7.25,17.16,17.16,0,0,1,1.37-6.7A18.9,18.9,0,0,1,188.21,7a18.68,18.68,0,0,1,5.6-4,15.57,15.57,0,0,1,11.6-.75,13.77,13.77,0,0,1,4.66,2.55,14,14,0,0,1,3.61,4.66,16.13,16.13,0,0,1,1.45,7.21Zm16.14-1.1a13.68,13.68,0,0,0,.16-2v-2a15.78,15.78,0,0,0-.51-4.39,7.07,7.07,0,0,0-1.41-2.74,4.89,4.89,0,0,0-2.2-1.45,8.66,8.66,0,0,0-2.78-.44A8.32,8.32,0,0,0,196,3.54a7.84,7.84,0,0,0-2.74,2.86,14.83,14.83,0,0,0-1.53,4.16,31.86,31.86,0,0,0-.66,4.93Z"/><path class="cls-1" d="M232.29,25.05h.86a30.48,30.48,0,0,0,1.41,3.81,13.73,13.73,0,0,0,2.31,3.52A11.5,11.5,0,0,0,240.44,35a11.64,11.64,0,0,0,5.09,1A7.08,7.08,0,0,0,250,34.5q2-1.53,2-5c0-2-.51-3.38-1.53-4.19a12,12,0,0,0-3.56-1.92l-6.12-2.12c-.78-.26-1.63-.58-2.54-1a9.17,9.17,0,0,1-2.55-1.64A8,8,0,0,1,233.74,16a10.21,10.21,0,0,1-.75-4.23,9.56,9.56,0,0,1,.87-4.07,10.43,10.43,0,0,1,5.91-5.49,12.76,12.76,0,0,1,4.51-.78,11.57,11.57,0,0,1,2.78.27c.71.19,1.32.37,1.84.55s1,.37,1.41.55A3.78,3.78,0,0,0,251.8,3a1.38,1.38,0,0,0,1.26-.62h.86v8.93h-.86A34.7,34.7,0,0,0,251.8,8a13.54,13.54,0,0,0-1.68-2.86,6.82,6.82,0,0,0-2.43-2,7.75,7.75,0,0,0-3.41-.71,9,9,0,0,0-5.84,1.69,5.51,5.51,0,0,0-2.08,4.51,4.42,4.42,0,0,0,1.77,3.8,18.4,18.4,0,0,0,5.21,2.39l5.72,1.88a16.2,16.2,0,0,1,6,3.45,7.54,7.54,0,0,1,2.36,5.8,11,11,0,0,1-.83,4.15,10,10,0,0,1-2.43,3.56,12.14,12.14,0,0,1-3.92,2.47,13.85,13.85,0,0,1-5.28.94,13.24,13.24,0,0,1-3.18-.35c-1-.23-1.85-.48-2.66-.74s-1.56-.51-2.24-.75a5.89,5.89,0,0,0-1.88-.35,1.87,1.87,0,0,0-1.25.35,3.59,3.59,0,0,0-.63.75h-.86Z"/><path class="cls-1" d="M274.84,25.05h.87a27.62,27.62,0,0,0,1.41,3.81,13.22,13.22,0,0,0,2.31,3.52A11.34,11.34,0,0,0,283,35a11.65,11.65,0,0,0,5.1,1,7,7,0,0,0,4.46-1.53q2-1.53,2-5c0-2-.5-3.38-1.52-4.19a12,12,0,0,0-3.57-1.92l-6.11-2.12c-.79-.26-1.64-.58-2.55-1a9.47,9.47,0,0,1-2.55-1.64A8.18,8.18,0,0,1,276.29,16a10.39,10.39,0,0,1-.74-4.23,9.71,9.71,0,0,1,.86-4.07,10.58,10.58,0,0,1,2.35-3.29,10.28,10.28,0,0,1,3.57-2.2,12.66,12.66,0,0,1,4.5-.78,11.71,11.71,0,0,1,2.79.27c.7.19,1.31.37,1.84.55s1,.37,1.41.55a3.74,3.74,0,0,0,1.49.27,1.38,1.38,0,0,0,1.25-.62h.86v8.93h-.86A32.19,32.19,0,0,0,294.36,8a13.16,13.16,0,0,0-1.69-2.86,6.74,6.74,0,0,0-2.43-2,7.69,7.69,0,0,0-3.41-.71A9,9,0,0,0,281,4.17a5.48,5.48,0,0,0-2.08,4.51,4.44,4.44,0,0,0,1.76,3.8,18.53,18.53,0,0,0,5.21,2.39l5.72,1.88a16.32,16.32,0,0,1,6,3.45A7.54,7.54,0,0,1,300,26a11,11,0,0,1-.82,4.15,10,10,0,0,1-2.43,3.56,12.25,12.25,0,0,1-3.92,2.47,13.9,13.9,0,0,1-5.29.94,13.1,13.1,0,0,1-3.17-.35c-1-.23-1.86-.48-2.67-.74s-1.55-.51-2.23-.75a5.94,5.94,0,0,0-1.88-.35,1.88,1.88,0,0,0-1.26.35,3.25,3.25,0,0,0-.62.75h-.87Z"/></svg>